<?xml version="1.0" encoding="UTF-8"?>
<!DOCTYPE svg PUBLIC "-//W3C//DTD SVG 1.1//EN" "http://www.w3.org/Graphics/SVG/1.1/DTD/svg11.dtd">
<!-- Creator: CorelDRAW X5 -->
<svg xmlns="http://www.w3.org/2000/svg" xml:space="preserve" width="2048px" height="2048px" style="shape-rendering:geometricPrecision; text-rendering:geometricPrecision; image-rendering:optimizeQuality; fill-rule:evenodd; clip-rule:evenodd"
viewBox="0 0 2048 2048"
 xmlns:xlink="http://www.w3.org/1999/xlink">
 <defs>
  <style type="text/css">
   <![CDATA[
    .fil6 {fill:none}
    .fil1 {fill:#1B1B1B;fill-rule:nonzero}
    .fil0 {fill:#212121;fill-rule:nonzero}
    .fil2 {fill:#2A2A2A;fill-rule:nonzero}
    .fil5 {fill:#2C2C2C;fill-rule:nonzero}
    .fil3 {fill:#424242;fill-rule:nonzero}
    .fil4 {fill:#505050;fill-rule:nonzero}
   ]]>
  </style>
 </defs>
 <g id="Layer_x0020_1">
  <metadata id="CorelCorpID_0Corel-Layer"/>
  <g id="_238482224">
   <path class="fil0" d="M1046 947l212 -175c13,-11 32,-11 44,1 21,21 49,35 83,43 37,9 81,10 129,4 39,-5 75,-15 107,-33 31,-17 57,-42 78,-75l0 0c3,-5 7,-8 12,-11 15,-9 35,-3 43,12 62,111 37,252 13,385 -12,68 -24,134 -23,191 0,1 0,2 0,4 0,18 -14,32 -32,32l-330 0 0 0c-18,0 -32,-14 -32,-32l0 -31c-11,4 -23,8 -34,12 -116,42 -220,80 -356,79 -81,0 -282,-12 -445,-35 -112,-16 -209,-37 -245,-64l0 0c-5,-4 -9,-9 -11,-15 -1,-2 -1,-4 -1,-5 -6,-30 18,-57 63,-81 33,-17 80,-36 136,-54 187,-62 466,-124 564,-144 5,-1 9,-2 12,-2 6,-1 13,-2 14,-3z"/>
   <path class="fil1" d="M1317 786c19,14 42,24 68,30 37,9 81,10 129,4 39,-5 75,-15 107,-33 31,-17 57,-42 78,-75l0 0c3,-5 7,-8 12,-11 7,-4 14,-5 21,-4 3,9 4,19 4,29 0,84 -98,153 -218,153 -80,0 -150,-30 -188,-75 -9,-5 -37,-37 -13,-17z"/>
   <path class="fil2" d="M1046 947l212 -175c13,-11 32,-11 44,1 10,10 15,23 28,30 -22,26 -177,205 -243,193 -18,-3 -34,-16 -44,-43 -3,-9 -1,-3 3,-6z"/>
   <path class="fil3" d="M1746 1231c-2,20 -3,39 -2,57 0,1 0,2 0,4 0,18 -14,32 -32,32l-330 0 0 0c-18,0 -32,-14 -32,-32l0 -31 -10 4 0 -17 406 -15z"/>
   <path class="fil4" d="M1753 1170c-4,23 -7,46 -8,68l-395 22 0 0 0 0c-11,4 -23,8 -34,12 -116,42 -220,80 -356,79 -81,0 -282,-12 -445,-35 -112,-16 -209,-37 -245,-64l0 0c-5,-4 -9,-9 -11,-15 -1,-2 -1,-4 -1,-5 -1,-7 -1,-14 1,-21 89,25 193,46 299,59 175,22 306,32 434,20 118,-11 233,-41 376,-99l387 -21z"/>
   <path class="fil5" d="M1764 979c7,4 13,10 17,17l4 -3c-5,-7 -11,-13 -18,-18l-3 4zm-963 310l0 0c-5,-4 -10,-9 -15,-14l-4 3c5,5 10,10 15,14l0 0 0 0 3 -4zm-24 -25l0 0 0 0 0 0 0 0 0 0 0 0 0 0 0 -1 0 -1 0 -1 0 -1 0 -1 0 -1 0 -1 0 -1 0 -1 0 -1 0 -1 0 -1 0 -1 0 -1 0 -1 0 -1 0 -1 0 -1 0 -1 0 -1 0 -1 0 -1 0 -1 0 -1 0 -1 0 -1 0 -1 0 -1 0 -1 0 -1 0 -1 0 0 -4 2 0 0 0 1 0 1 0 1 0 1 0 1 0 1 0 1 0 1 0 1 0 1 0 1 0 1 0 1 0 1 0 1 0 1 0 1 0 1 0 1 0 1 0 1 0 1 0 1 0 1 0 1 0 1 0 1 0 1 0 1 0 1 0 1 0 1 0 1 0 1 0 1 0 0 0 0 0 0 4 -3zm-20 -34l0 -1 0 -1 0 -1 0 -1 0 -1 0 -1 0 -1 0 -1 0 -1 0 -1 0 -1 0 -1 0 -1 0 -1 0 -1 0 -1 0 -1 0 -1 0 -1 0 -1 0 -1 0 -1 0 -1 0 -1 0 -1 0 -1 0 -1 0 -1 0 -1 0 -1 0 -1 0 -1 0 -1 0 -1 0 -1 0 0 -5 0 0 1 0 1 0 1 0 1 0 1 0 1 0 1 0 1 0 1 0 1 0 1 0 1 0 1 0 1 0 1 0 1 0 1 0 1 0 1 0 1 0 1 0 1 0 1 0 1 0 1 0 1 0 1 0 1 0 1 0 1 0 1 0 1 0 1 0 1 0 1 0 1 5 -2zm-3 -38l0 0 0 -1 0 -1 0 -1 0 -1 0 -1 0 -1 0 -1 0 -1 0 -1 0 -1 0 -1 0 -1 0 -1 0 -1 0 -1 0 -1 0 -1 0 -1 0 -1 0 -1 0 -1 0 -1 0 -1 0 -1 0 -1 0 -1 0 -1 0 -1 0 -1 0 -1 0 0 -4 -3 0 1 -1 1 -1 1 0 1 0 1 0 1 0 1 0 1 0 1 0 1 0 1 0 1 0 1 0 1 0 1 0 1 0 1 0 1 0 1 0 1 0 1 0 1 0 1 0 1 0 1 0 1 0 1 0 1 0 1 0 1 0 1 0 0 5 1zm20 -33c6,-6 12,-11 19,-15l-2 -4c-7,4 -14,10 -20,16l4 4zm32 -21c8,-3 15,-5 24,-5l0 -5c-9,1 -17,3 -25,6l2 5zm38 -5l0 0 0 0 0 0 0 0 0 0 0 0 0 0 0 0 0 0 0 0 0 0 0 0 0 0 0 0 0 0 0 0 0 0 3 0 3 0 3 0 3 0 3 0 3 0 3 0 1 0 1 -5 -1 0 -3 0 -3 0 -3 0 -3 0 -3 0 -3 0 -3 0 0 0 0 0 0 0 0 0 0 0 0 0 0 0 0 0 0 0 0 0 0 0 0 0 0 0 0 0 0 0 0 0 0 0 -1 5zm39 6l2 0 3 0 3 0 3 0 3 0 3 0 2 0 2 0 2 0 2 0 0 0 1 -5 0 0 -2 0 -2 0 -2 0 -2 0 -3 0 -3 0 -3 0 -3 0 -3 0 -2 0 -1 5zm40 6l2 0 2 0 2 0 2 0 2 0 2 0 2 0 2 0 2 0 2 0 0 0 1 -5 0 0 -2 0 -2 0 -2 0 -2 0 -2 0 -2 0 -2 0 -2 0 -2 0 -2 0 -1 5zm40 6l2 0 2 0 2 0 2 0 2 0 2 0 2 0 2 0 2 0 2 0 1 0 1 -5 -1 0 -2 0 -2 0 -2 0 -2 0 -2 0 -2 0 -2 0 -2 0 -2 0 -2 0 -1 5zm40 5l1 0 2 0 2 0 2 0 2 0 2 0 2 0 2 0 2 0 2 0 2 0 0 0 0 -5 0 0 -2 0 -2 0 -2 0 -2 0 -2 0 -2 0 -2 0 -2 0 -2 0 -2 0 -1 0 0 5zm40 3l2 0 2 0 2 0 2 0 2 0 2 0 2 0 2 0 2 0 2 0 2 0 0 -5 -2 0 -2 0 -2 0 -2 0 -2 0 -2 0 -2 0 -2 0 -2 0 -2 0 -2 0 0 5zm40 2l0 0 2 0 2 0 2 0 2 0 2 0 2 0 2 0 2 0 2 0 2 0 1 0 0 -5 -1 0 -2 0 -2 0 -2 0 -2 0 -2 0 -2 0 -2 0 -2 0 -2 0 -2 0 0 0 0 5zm40 0l1 0 2 0 2 0 2 0 2 0 2 0 2 0 2 0 2 0 2 0 2 0 0 -5 -2 0 -2 0 -2 0 -2 0 -2 0 -2 0 -2 0 -2 0 -2 0 -2 0 -1 0 0 5zm40 -2l2 0 2 0 2 0 2 0 2 0 2 0 2 0 2 0 2 0 2 0 1 0 -1 -5 0 0 -2 0 -2 0 -2 0 -2 0 -2 0 -2 0 -2 0 -2 0 -2 0 -2 0 0 5zm40 -4l2 0 2 0 2 0 3 0 3 0 3 0 3 0 3 0 3 0 3 0 0 0 -1 -5 0 0 -3 0 -2 0 -2 0 -2 0 -2 0 -2 0 -2 0 -2 0 -2 0 -2 0 1 5zm40 -7l0 0 3 0 3 -1 3 -1 3 -1 3 -1 3 -1 3 -1 3 -1 3 -1 1 0 -1 -5 -1 0 -3 1 -3 1 -3 1 -3 1 -3 1 -3 1 -3 1 -3 1 -3 0 0 0 1 5zm39 -9l2 -1 3 -1 3 -1 3 -1 3 -1 3 -1 3 -1 3 -1 3 -1 1 0 -1 -5 -1 0 -3 1 -3 1 -3 1 -3 1 -3 1 -3 1 -3 1 -3 1 -2 1 1 5zm39 -11l0 0 3 -1 3 -1 3 -1 3 -1 3 -1 3 -1 3 -1 3 -1 2 -1 -2 -5 -2 1 -3 1 -3 1 -3 1 -3 1 -3 1 -3 1 -3 1 -3 1 0 0 1 5zm38 -13l0 0 3 -1 3 -1 3 -1 3 -1 3 -1 3 -1 3 -1 3 -1 1 0 -2 -5 -1 0 -3 1 -3 1 -3 1 -3 1 -3 1 -3 1 -3 1 -3 1 0 0 2 5zm37 -14l2 -1 3 -1 3 -1 3 -1 3 -1 3 -1 3 -1 3 -1 1 0 -2 -5 -1 0 -3 1 -3 1 -3 1 -3 1 -3 1 -3 1 -3 1 -2 1 2 5zm37 -16l3 -1 3 -1 3 -1 3 -1 3 -1 3 -1 3 -1 2 -1 -2 -5 -2 1 -3 1 -3 1 -3 1 -3 1 -3 1 -3 1 -3 1 2 5zm36 -17l2 -1 3 -1 3 -2 3 -2 3 -2 3 -2 3 -2 2 -1 -2 -4 -2 1 -3 2 -3 2 -3 2 -3 2 -3 2 -3 1 -2 1 2 4zm36 -18l0 0 3 -2 3 -2 1 0 1 0 1 0 1 0 1 0 1 0 1 0 1 0 1 0 1 0 1 0 1 0 1 0 1 0 1 0 1 0 1 0 1 0 1 0 1 0 1 0 1 0 1 0 0 0 -2 -4 0 0 -1 0 -1 0 -1 0 -1 0 -1 0 -1 0 -1 0 -1 0 -1 0 -1 0 -1 0 -1 0 -1 0 -1 0 -1 0 -1 0 -1 0 -1 0 -1 0 -1 0 -1 0 -1 0 -1 0 -3 2 -3 2 0 0 2 4zm36 -18l1 0 1 0 1 0 1 0 1 0 1 0 1 0 1 0 1 0 1 0 1 0 1 0 1 0 1 0 1 0 1 0 1 0 1 0 1 0 1 0 1 0 1 0 1 0 1 0 1 0 1 0 1 0 1 0 1 0 1 0 1 0 1 0 0 0 -2 -5 0 0 -1 0 -1 0 -1 0 -1 0 -1 0 -1 0 -1 0 -1 0 -1 0 -1 0 -1 0 -1 0 -1 0 -1 0 -1 0 -1 0 -1 0 -1 0 -1 0 -1 0 -1 0 -1 0 -1 0 -1 0 -1 0 -1 0 -1 0 -1 0 -1 0 -1 0 -1 0 -1 0 2 5zm36 -16l0 0 1 0 1 0 1 0 1 0 1 0 1 0 1 0 1 0 1 0 1 0 1 0 1 0 1 0 1 0 1 0 1 0 1 0 1 0 1 0 1 0 1 0 1 0 1 0 1 0 1 0 1 0 1 0 1 0 1 0 1 0 1 0 0 0 -2 -5 0 0 -1 0 -1 0 -1 0 -1 0 -1 0 -1 0 -1 0 -1 0 -1 0 -1 0 -1 0 -1 0 -1 0 -1 0 -1 0 -1 0 -1 0 -1 0 -1 0 -1 0 -1 0 -1 0 -1 0 -1 0 -1 0 -1 0 -1 0 -1 0 -1 0 -1 0 -1 0 0 0 2 5zm37 -15l1 0 1 0 1 0 1 0 1 0 1 0 1 0 1 0 1 0 1 0 1 0 1 0 1 0 1 0 1 0 1 0 1 0 1 0 1 0 1 0 1 0 1 0 1 0 1 0 1 0 1 0 1 0 1 0 1 0 1 0 1 0 1 0 0 0 -2 -5 0 0 -1 0 -1 0 -1 0 -1 0 -1 0 -1 0 -1 0 -1 0 -1 0 -1 0 -1 0 -1 0 -1 0 -1 0 -1 0 -1 0 -1 0 -1 0 -1 0 -1 0 -1 0 -1 0 -1 0 -1 0 -1 0 -1 0 -1 0 -1 0 -1 0 -1 0 -1 0 -1 0 2 5zm37 -14l0 0 1 0 1 0 1 0 1 0 1 0 1 0 1 0 1 0 1 0 1 0 1 0 1 0 1 0 1 0 1 0 1 0 1 0 1 0 1 0 1 0 1 0 1 0 1 0 1 0 1 0 1 0 1 0 1 0 1 0 1 0 1 0 1 0 1 0 0 0 -2 -5 0 0 -1 0 -1 0 -1 0 -1 0 -1 0 -1 0 -1 0 -1 0 -1 0 -1 0 -1 0 -1 0 -1 0 -1 0 -1 0 -1 0 -1 0 -1 0 -1 0 -1 0 -1 0 -1 0 -1 0 -1 0 -1 0 -1 0 -1 0 -1 0 -1 0 -1 0 -1 0 -1 0 -1 0 0 0 2 5zm38 -13l0 0 1 0 1 0 1 0 1 0 1 0 1 0 1 0 1 0 1 0 1 0 1 0 1 0 1 0 1 0 1 0 1 0 1 0 1 0 1 0 1 0 1 0 1 0 1 0 1 0 1 0 1 0 1 0 1 0 1 0 1 0 1 0 1 0 1 0 1 0 1 0 1 0 1 0 1 0 1 0 1 0 0 0 -1 -5 0 0 -1 0 -1 0 -1 0 -1 0 -1 0 -1 0 -1 0 -1 0 -1 0 -1 0 -1 0 -1 0 -1 0 -1 0 -1 0 -1 0 -1 0 -1 0 -1 0 -1 0 -1 0 -1 0 -1 0 -1 0 -1 0 -1 0 -1 0 -1 0 -1 0 -1 0 -1 0 -1 0 -1 0 -1 0 -1 0 -1 0 -1 0 -1 0 -1 0 -1 0 0 0 2 5zm38 -7c8,0 16,2 24,5l0 0 2 -5c-8,-3 -17,-5 -25,-5l0 5z"/>
   <path class="fil5" d="M1757 1008l1 0 1 1 1 1 1 1 1 1 1 1 1 1 1 1 1 1 1 1 1 1 1 1 1 1 1 1 1 1 1 1 1 1 1 1 0 1 0 1 0 1 0 1 0 1 0 1 0 1 0 1 0 1 5 -2 0 -1 0 -1 0 -1 0 -1 0 -1 -1 -1 -1 -1 -1 -1 -1 -1 -1 -1 -1 -1 -1 -1 -1 -1 -1 -1 -1 -1 -1 -1 -1 -1 -1 -1 -1 -1 -1 -1 -1 -1 -1 -1 -1 -1 -1 -1 -1 -1 -1 -1 -1 0 -3 4zm-928 280c-7,-4 -13,-10 -20,-15l0 0 -3 4c6,5 13,11 20,15l3 -4zm-30 -25l0 0 0 0 0 0 0 0 0 0 0 0 0 0 0 0 0 0 0 0 0 0 0 0 0 0 0 0 0 0 0 0 0 0 0 0 0 -1 0 -1 0 -1 0 -1 0 -1 0 -1 0 -1 0 -1 0 -1 0 -1 0 -1 0 -1 0 -1 0 -1 0 -1 0 -1 0 -1 0 -1 0 -1 0 -1 0 0 -4 3 0 0 0 1 0 1 0 1 0 1 0 1 0 1 0 1 0 1 0 1 0 1 0 1 0 1 0 1 0 1 0 1 0 1 0 1 0 1 0 1 0 1 0 1 0 1 0 1 0 1 0 1 0 1 0 0 0 0 0 0 0 0 0 0 0 0 0 0 0 0 0 0 0 0 0 0 0 0 4 -4zm-23 -31l0 0 0 -1 0 -1 0 -1 0 -1 0 -1 0 -1 0 -1 0 -1 0 -1 0 -1 0 -1 0 -1 0 -1 0 -1 0 -1 0 -1 0 -1 0 -1 0 -1 0 -1 0 -1 0 -1 0 -1 0 -1 0 -1 0 -1 0 -1 0 -1 0 -1 0 -1 0 -1 0 -1 0 -1 0 -1 0 -1 0 -1 0 -1 0 -1 0 0 -5 0 0 0 0 1 0 1 0 1 0 1 0 1 0 1 0 1 0 1 0 1 0 1 0 1 0 1 0 1 0 1 0 1 0 1 0 1 0 1 0 1 0 1 0 1 0 1 0 1 0 1 0 1 0 1 0 1 0 1 0 1 0 1 0 1 0 1 0 1 0 1 0 1 0 1 0 1 0 1 0 0 5 -2zm-2 -37l0 -1 0 -1 0 -1 0 -1 0 -1 0 -1 0 -1 0 -1 0 -1 0 -1 0 -1 0 -1 0 -1 0 -1 0 -1 0 -1 0 -1 0 -1 0 -1 0 -1 0 -1 0 -1 1 -1 1 -1 1 -1 1 -1 1 -1 1 -1 1 -1 1 -1 1 -1 1 -1 -3 -4 -1 1 -1 1 -1 1 -1 1 -1 1 -1 1 -1 1 -1 1 -1 1 -1 1 -1 1 -1 1 -1 1 0 1 0 1 0 1 0 1 0 1 0 1 0 1 0 1 0 1 0 1 0 1 0 1 0 1 0 1 0 1 0 1 0 1 0 1 0 1 5 2zm25 -28c7,-4 15,-6 23,-8l-1 -5c-8,2 -17,4 -24,8l2 4zm37 -10c8,-1 16,-1 25,0l0 -5c-8,-1 -17,-1 -25,0l0 5zm39 2l1 0 2 0 2 0 2 0 2 0 2 0 2 0 2 0 2 0 2 0 2 0 1 -5 -2 0 -2 0 -2 0 -2 0 -2 0 -2 0 -2 0 -2 0 -2 0 -2 0 -1 0 -1 5zm40 6l0 0 2 0 2 0 2 0 2 0 2 0 2 0 2 0 2 0 2 0 2 0 1 0 1 -5 -1 0 -2 0 -2 0 -2 0 -2 0 -2 0 -2 0 -2 0 -2 0 -2 0 -2 0 0 0 -1 5zm40 5l1 0 2 0 2 0 2 0 2 0 2 0 2 0 2 0 2 0 2 0 2 0 1 -5 -2 0 -2 0 -2 0 -2 0 -2 0 -2 0 -2 0 -2 0 -2 0 -2 0 -1 0 -1 5zm40 4l2 0 2 0 2 0 2 0 2 0 2 0 2 0 2 0 2 0 2 0 2 0 0 -5 -2 0 -2 0 -2 0 -2 0 -2 0 -2 0 -2 0 -2 0 -2 0 -2 0 -2 0 0 5zm40 3l2 0 2 0 2 0 2 0 2 0 2 0 2 0 2 0 2 0 2 0 2 0 0 0 0 -5 0 0 -2 0 -2 0 -2 0 -2 0 -2 0 -2 0 -2 0 -2 0 -2 0 -2 0 -2 0 0 5zm40 2l1 0 2 0 2 0 2 0 2 0 2 0 2 0 2 0 2 0 2 0 2 0 0 0 0 -5 0 0 -2 0 -2 0 -2 0 -2 0 -2 0 -2 0 -2 0 -2 0 -2 0 -2 0 -1 0 0 5zm40 0l1 0 2 0 2 0 2 0 2 0 2 0 2 0 2 0 2 0 2 0 2 0 1 0 0 -5 -1 0 -2 0 -2 0 -2 0 -2 0 -2 0 -2 0 -2 0 -2 0 -2 0 -2 0 -1 0 0 5zm40 -2l1 0 2 0 2 0 2 0 2 0 2 0 2 0 2 0 2 0 2 0 2 0 0 0 -1 -5 0 0 -2 0 -2 0 -2 0 -2 0 -2 0 -2 0 -2 0 -2 0 -2 0 -2 0 -1 0 0 5zm40 -4l2 0 2 0 2 0 2 0 2 0 2 0 2 0 2 0 2 0 2 0 1 0 -1 -5 -1 0 -2 0 -2 0 -2 0 -2 0 -2 0 -2 0 -2 0 -2 0 -2 0 -2 0 1 5zm40 -6l1 0 2 0 2 0 2 0 2 0 2 0 2 0 2 0 2 0 2 0 2 0 -1 -5 -2 0 -2 0 -2 0 -2 0 -2 0 -2 0 -2 0 -2 0 -2 0 -2 0 -1 0 1 5zm39 -8l1 0 3 -1 3 -1 3 -1 3 -1 3 -1 3 -1 3 -1 3 -1 3 -1 0 0 -1 -5 0 0 -3 1 -3 1 -3 1 -3 1 -3 1 -3 1 -3 1 -3 1 -2 1 -1 0 1 5zm39 -10l0 0 3 -1 3 -1 3 -1 3 -1 3 -1 3 -1 3 -1 3 -1 3 -1 0 0 -1 -5 0 0 -3 1 -3 1 -3 1 -3 1 -3 1 -3 1 -3 1 -3 1 -3 1 0 0 1 5zm38 -11l1 0 3 -1 3 -1 3 -1 3 -1 3 -1 3 -1 3 -1 3 -1 1 0 -2 -5 -1 0 -3 1 -3 1 -3 1 -3 1 -3 1 -3 1 -3 1 -3 1 -1 0 2 5zm38 -13l1 0 3 -1 3 -1 3 -1 3 -1 3 -1 3 -1 3 -1 3 -1 1 0 -2 -5 -1 0 -3 1 -3 1 -3 1 -3 1 -3 1 -3 1 -3 1 -3 1 -1 0 2 5zm37 -14l2 -1 3 -1 3 -1 3 -1 3 -1 3 -1 3 -1 3 -1 1 0 -2 -5 -1 0 -3 1 -3 1 -3 1 -3 1 -3 1 -3 1 -3 1 -2 1 2 5zm37 -16l2 -1 3 -1 3 -1 3 -1 3 -1 3 -1 3 -1 3 -1 -2 -5 -3 1 -3 1 -3 1 -3 1 -3 1 -3 1 -3 1 -2 1 2 5zm36 -17l1 -1 3 -1 3 -1 3 -1 3 -1 1 0 1 0 1 0 1 0 1 0 1 0 1 0 1 0 1 0 1 0 1 0 -2 -4 -1 0 -1 0 -1 0 -1 0 -1 0 -1 0 -1 0 -1 0 -1 0 -1 0 -1 0 -3 1 -3 1 -3 1 -3 1 -1 1 2 5zm36 -18l0 0 1 -1 1 -1 1 -1 1 -1 1 -1 1 -1 1 -1 1 -1 1 -1 1 -1 1 -1 1 -1 1 -1 1 -1 1 -1 1 -1 1 -1 1 -1 1 -1 1 -1 1 -1 -2 -4 -1 1 -1 1 -1 1 -1 1 -1 1 -1 1 -1 1 -1 1 -1 1 -1 1 -1 1 -1 1 -1 1 -1 1 -1 1 -1 1 -1 1 -1 1 -1 1 -1 1 -1 1 0 0 2 4zm36 -18l0 0 1 -1 1 -1 1 -1 1 -1 1 -1 1 -1 1 -1 1 -1 1 -1 1 -1 1 -1 1 -1 1 -1 1 -1 1 -1 1 -1 1 -1 1 -1 1 -1 -2 -5 -1 1 -1 1 -1 1 -1 1 -1 1 -1 1 -1 1 -1 1 -1 1 -1 1 -1 1 -1 1 -1 1 -1 1 -1 1 -1 1 -1 1 -1 1 -1 1 0 0 2 4zm36 -17l1 0 1 -1 1 -1 1 -1 1 -1 1 -1 1 -1 1 -1 1 -1 1 -1 1 -1 1 -1 1 -1 1 -1 1 0 1 0 1 0 1 0 1 0 -2 -5 -1 0 -1 0 -1 0 -1 1 -1 1 -1 1 -1 1 -1 1 -1 1 -1 1 -1 1 -1 1 -1 1 -1 1 -1 1 -1 1 -1 1 -1 1 -1 0 2 5zm37 -15l1 0 1 0 1 0 1 0 1 0 1 0 1 0 1 0 1 0 1 0 1 0 1 0 1 0 1 0 1 0 1 0 1 0 1 0 1 0 1 0 -1 -5 -1 0 -1 0 -1 0 -1 0 -1 0 -1 0 -1 0 -1 0 -1 0 -1 0 -1 0 -1 0 -1 0 -1 0 -1 0 -1 0 -1 0 -1 0 -1 0 -1 0 2 5zm38 -11l0 0 1 0 1 0 1 0 1 0 1 0 1 0 1 0 1 0 1 0 1 0 1 0 1 0 1 0 1 0 1 0 1 0 1 0 1 0 1 0 1 0 1 0 1 0 0 -5 -1 0 -1 0 -1 0 -1 0 -1 0 -1 0 -1 0 -1 0 -1 0 -1 0 -1 0 -1 0 -1 0 -1 0 -1 0 -1 0 -1 0 -1 0 -1 0 -1 0 -1 0 -1 0 0 0 1 5zm39 -4l0 0 1 0 1 0 1 0 1 0 1 0 1 0 1 0 1 0 1 0 1 0 1 0 1 0 1 0 1 0 1 0 1 0 1 0 1 0 1 0 1 0 1 0 1 0 1 0 1 0 1 0 1 0 0 0 2 -5 0 0 -1 0 -1 0 -1 0 -1 0 -1 0 -1 0 -1 0 -1 0 -1 0 -1 0 -1 0 -1 0 -1 0 -1 0 -1 0 -1 0 -1 0 -1 0 -1 0 -1 0 -1 0 -1 0 -1 0 -1 0 -1 0 -1 0 0 0 0 5z"/>
   <path class="fil0" d="M1096 886c5,1 9,6 8,11 -1,5 -6,9 -11,8 1,0 9,2 18,15 19,31 30,37 30,37 5,3 6,9 3,14 -3,5 -9,6 -14,3 0,0 -15,-9 -36,-43 -33,-52 2,-45 2,-45z"/>
   <path class="fil0" d="M1137 854c5,1 9,6 8,11 -1,5 -6,9 -11,8 1,0 9,2 18,15 19,31 30,37 30,37 5,3 6,9 3,14 -3,5 -9,6 -14,3 0,0 -15,-9 -36,-43 -33,-52 2,-45 2,-45z"/>
   <path class="fil0" d="M1179 819c5,1 9,6 8,11 -1,5 -6,9 -11,8 1,0 9,2 18,15 19,31 30,37 30,37 5,3 6,9 3,14 -3,5 -9,6 -14,3 0,0 -15,-9 -36,-43 -33,-52 2,-45 2,-45z"/>
   <path class="fil0" d="M1215 782c5,1 9,6 8,11 -1,5 -6,9 -11,8 1,0 9,2 18,15 19,31 30,37 30,37 5,3 6,9 3,14 -3,5 -9,6 -14,3 0,0 -15,-9 -36,-43 -33,-52 2,-45 2,-45z"/>
  </g>
  <rect class="fil6" width="2048" height="2048"/>
 </g>
</svg>
