<?xml version="1.0" encoding="UTF-8"?>
<!DOCTYPE svg PUBLIC "-//W3C//DTD SVG 1.1//EN" "http://www.w3.org/Graphics/SVG/1.1/DTD/svg11.dtd">
<!-- Creator: CorelDRAW X5 -->
<svg xmlns="http://www.w3.org/2000/svg" xml:space="preserve" width="2048px" height="2048px" style="shape-rendering:geometricPrecision; text-rendering:geometricPrecision; image-rendering:optimizeQuality; fill-rule:evenodd; clip-rule:evenodd"
viewBox="0 0 2048 2048"
 xmlns:xlink="http://www.w3.org/1999/xlink">
 <defs>
  <style type="text/css">
   <![CDATA[
    .fil6 {fill:none}
    .fil4 {fill:#00838F;fill-rule:nonzero}
    .fil5 {fill:#0097A7;fill-rule:nonzero}
    .fil1 {fill:#AD1457;fill-rule:nonzero}
    .fil2 {fill:#CF3266;fill-rule:nonzero}
    .fil0 {fill:#E91E63;fill-rule:nonzero}
    .fil3 {fill:#EC407A;fill-rule:nonzero}
   ]]>
  </style>
 </defs>
 <g id="Layer_x0020_1">
  <metadata id="CorelCorpID_0Corel-Layer"/>
  <g id="_240351672">
   <g>
    <path class="fil0" d="M665 572c0,15 -12,26 -26,26 -15,0 -26,-12 -26,-26l0 -152c0,-1 0,-1 0,-2 -1,-42 -7,-71 -16,-89 -8,-17 -19,-24 -28,-24 -23,-1 -35,15 -42,34 -9,26 -9,60 -9,85 0,15 -12,26 -26,26 -15,0 -26,-12 -26,-26 0,-28 0,-67 11,-101 13,-40 40,-72 93,-70 28,1 56,16 74,53 13,25 21,62 22,112 0,1 0,2 0,3l0 152z"/>
    <path class="fil1" d="M633 973c27,0 51,11 69,28 18,18 28,42 28,69 0,27 -11,51 -28,69 -18,18 -42,28 -69,28 -27,0 -51,-11 -69,-28 -18,-18 -28,-42 -28,-69 0,-27 11,-51 28,-69 18,-18 42,-28 69,-28zm23 74c-6,-6 -14,-10 -23,-10 -9,0 -17,4 -23,10 -6,6 -10,14 -10,23 0,9 4,17 10,23 6,6 14,10 23,10 9,0 17,-4 23,-10 6,-6 10,-14 10,-23 0,-9 -4,-17 -10,-23z"/>
    <path class="fil1" d="M633 841c27,0 51,11 69,28 18,18 28,42 28,69 0,27 -11,51 -28,69 -18,18 -42,28 -69,28 -27,0 -51,-11 -69,-28 -18,-18 -28,-42 -28,-69 0,-27 11,-51 28,-69 18,-18 42,-28 69,-28zm23 74c-6,-6 -14,-10 -23,-10 -9,0 -17,4 -23,10 -6,6 -10,14 -10,23 0,9 4,17 10,23 6,6 14,10 23,10 9,0 17,-4 23,-10 6,-6 10,-14 10,-23 0,-9 -4,-17 -10,-23z"/>
    <path class="fil1" d="M633 709c27,0 51,11 69,28 18,18 28,42 28,69 0,27 -11,51 -28,69 -18,18 -42,28 -69,28 -27,0 -51,-11 -69,-28 -18,-18 -28,-42 -28,-69 0,-27 11,-51 28,-69 18,-18 42,-28 69,-28zm23 74c-6,-6 -14,-10 -23,-10 -9,0 -17,4 -23,10 -6,6 -10,14 -10,23 0,9 4,17 10,23 6,6 14,10 23,10 9,0 17,-4 23,-10 6,-6 10,-14 10,-23 0,-9 -4,-17 -10,-23z"/>
    <path class="fil1" d="M633 577c27,0 51,11 69,28 18,18 28,42 28,69 0,27 -11,51 -28,69 -18,18 -42,28 -69,28 -27,0 -51,-11 -69,-28 -18,-18 -28,-42 -28,-69 0,-27 11,-51 28,-69 18,-18 42,-28 69,-28zm23 74c-6,-6 -14,-10 -23,-10 -9,0 -17,4 -23,10 -6,6 -10,14 -10,23 0,9 4,17 10,23 6,6 14,10 23,10 9,0 17,-4 23,-10 6,-6 10,-14 10,-23 0,-9 -4,-17 -10,-23z"/>
    <path class="fil2" d="M633 1156c88,0 168,36 226,94 58,58 94,138 94,226 0,88 -36,168 -94,226 -58,58 -138,94 -226,94 -88,0 -168,-36 -226,-94 -58,-58 -94,-138 -94,-226 0,-88 36,-168 94,-226 58,-58 138,-94 226,-94z"/>
    <path class="fil3" d="M633 1156c84,0 160,34 215,89 55,55 89,131 89,215 0,84 -34,160 -89,215 -55,55 -131,89 -215,89 -84,0 -160,-34 -215,-89 -55,-55 -89,-131 -89,-215 0,-84 34,-160 89,-215 55,-55 131,-89 215,-89z"/>
    <path class="fil4" d="M752 1274c-30,-34 -72,-54 -118,-54 -46,0 -88,21 -118,54 -30,34 -49,80 -49,131 0,51 19,98 49,131 30,34 72,54 118,54 46,0 88,-21 118,-54 30,-34 49,-80 49,-131 0,-51 -19,-98 -49,-131z"/>
    <path class="fil5" d="M752 1269c-30,-30 -72,-49 -118,-49 -46,0 -88,19 -118,49 -30,30 -49,72 -49,118 0,46 19,88 49,118 30,30 72,49 118,49 46,0 88,-19 118,-49 30,-30 49,-72 49,-118 0,-46 -19,-88 -49,-118z"/>
   </g>
   <g>
    <path class="fil0" d="M1447 572c0,15 -12,26 -26,26 -15,0 -26,-12 -26,-26l0 -152c0,-1 0,-1 0,-2 -1,-42 -7,-71 -16,-89 -8,-17 -19,-24 -28,-24 -23,-1 -35,15 -42,34 -9,26 -9,60 -9,85 0,15 -12,26 -26,26 -15,0 -26,-12 -26,-26 0,-28 0,-67 11,-101 13,-40 40,-72 93,-70 28,1 56,16 74,53 13,25 21,62 22,112 0,1 0,2 0,3l0 152z"/>
    <path class="fil1" d="M1415 973c27,0 51,11 69,28 18,18 28,42 28,69 0,27 -11,51 -28,69 -18,18 -42,28 -69,28 -27,0 -51,-11 -69,-28 -18,-18 -28,-42 -28,-69 0,-27 11,-51 28,-69 18,-18 42,-28 69,-28zm23 74c-6,-6 -14,-10 -23,-10 -9,0 -17,4 -23,10 -6,6 -10,14 -10,23 0,9 4,17 10,23 6,6 14,10 23,10 9,0 17,-4 23,-10 6,-6 10,-14 10,-23 0,-9 -4,-17 -10,-23z"/>
    <path class="fil1" d="M1415 841c27,0 51,11 69,28 18,18 28,42 28,69 0,27 -11,51 -28,69 -18,18 -42,28 -69,28 -27,0 -51,-11 -69,-28 -18,-18 -28,-42 -28,-69 0,-27 11,-51 28,-69 18,-18 42,-28 69,-28zm23 74c-6,-6 -14,-10 -23,-10 -9,0 -17,4 -23,10 -6,6 -10,14 -10,23 0,9 4,17 10,23 6,6 14,10 23,10 9,0 17,-4 23,-10 6,-6 10,-14 10,-23 0,-9 -4,-17 -10,-23z"/>
    <path class="fil1" d="M1415 709c27,0 51,11 69,28 18,18 28,42 28,69 0,27 -11,51 -28,69 -18,18 -42,28 -69,28 -27,0 -51,-11 -69,-28 -18,-18 -28,-42 -28,-69 0,-27 11,-51 28,-69 18,-18 42,-28 69,-28zm23 74c-6,-6 -14,-10 -23,-10 -9,0 -17,4 -23,10 -6,6 -10,14 -10,23 0,9 4,17 10,23 6,6 14,10 23,10 9,0 17,-4 23,-10 6,-6 10,-14 10,-23 0,-9 -4,-17 -10,-23z"/>
    <path class="fil1" d="M1415 577c27,0 51,11 69,28 18,18 28,42 28,69 0,27 -11,51 -28,69 -18,18 -42,28 -69,28 -27,0 -51,-11 -69,-28 -18,-18 -28,-42 -28,-69 0,-27 11,-51 28,-69 18,-18 42,-28 69,-28zm23 74c-6,-6 -14,-10 -23,-10 -9,0 -17,4 -23,10 -6,6 -10,14 -10,23 0,9 4,17 10,23 6,6 14,10 23,10 9,0 17,-4 23,-10 6,-6 10,-14 10,-23 0,-9 -4,-17 -10,-23z"/>
    <path class="fil2" d="M1415 1156c88,0 168,36 226,94 58,58 94,138 94,226 0,88 -36,168 -94,226 -58,58 -138,94 -226,94 -88,0 -168,-36 -226,-94 -58,-58 -94,-138 -94,-226 0,-88 36,-168 94,-226 58,-58 138,-94 226,-94z"/>
    <path class="fil3" d="M1415 1156c84,0 160,34 215,89 55,55 89,131 89,215 0,84 -34,160 -89,215 -55,55 -131,89 -215,89 -84,0 -160,-34 -215,-89 -55,-55 -89,-131 -89,-215 0,-84 34,-160 89,-215 55,-55 131,-89 215,-89z"/>
    <path class="fil4" d="M1533 1274c-30,-34 -72,-54 -118,-54 -46,0 -88,21 -118,54 -30,34 -49,80 -49,131 0,51 19,98 49,131 30,34 72,54 118,54 46,0 88,-21 118,-54 30,-34 49,-80 49,-131 0,-51 -19,-98 -49,-131z"/>
    <path class="fil5" d="M1533 1269c-30,-30 -72,-49 -118,-49 -46,0 -88,19 -118,49 -30,30 -49,72 -49,118 0,46 19,88 49,118 30,30 72,49 118,49 46,0 88,-19 118,-49 30,-30 49,-72 49,-118 0,-46 -19,-88 -49,-118z"/>
   </g>
  </g>
  <rect class="fil6" width="2048" height="2048"/>
 </g>
</svg>
