<?xml version="1.0" encoding="UTF-8"?>
<!DOCTYPE svg PUBLIC "-//W3C//DTD SVG 1.1//EN" "http://www.w3.org/Graphics/SVG/1.1/DTD/svg11.dtd">
<!-- Creator: CorelDRAW X5 -->
<svg xmlns="http://www.w3.org/2000/svg" xml:space="preserve" width="2048px" height="2048px" style="shape-rendering:geometricPrecision; text-rendering:geometricPrecision; image-rendering:optimizeQuality; fill-rule:evenodd; clip-rule:evenodd"
viewBox="0 0 2048 2048"
 xmlns:xlink="http://www.w3.org/1999/xlink">
 <defs>
  <style type="text/css">
   <![CDATA[
    .fil8 {fill:none}
    .fil6 {fill:#212121}
    .fil5 {fill:#2B2A2A}
    .fil0 {fill:#47291A}
    .fil1 {fill:#5E3D2C}
    .fil2 {fill:#684736}
    .fil3 {fill:#815741}
    .fil7 {fill:#FAFAFA}
    .fil4 {fill:#FFB74D}
   ]]>
  </style>
 </defs>
 <g id="Layer_x0020_1">
  <metadata id="CorelCorpID_0Corel-Layer"/>
  <path class="fil0" d="M625 298l216 -34c121,10 243,9 364,0l171 33 0 1455 -750 0 0 -1454z"/>
  <path class="fil1" d="M854 227l358 0 0 51c-119,0 -239,0 -358,0l0 -51z"/>
  <g id="_576414152">
   <path class="fil2" d="M578 779c0,1 -1,-2 -1,-3 -5,14 -9,28 -14,42 -70,228 -45,348 -39,590l-253 64c-5,-84 -7,-149 -12,-226 -3,-96 -4,-205 1,-314 7,-135 32,-256 71,-359 27,-72 104,-226 176,-266 0,0 1,0 1,-1 60,119 89,322 70,473z"/>
   <path class="fil3" d="M517 1246c2,49 5,101 6,162l-253 64c-4,-58 -5,-107 -8,-158l255 -68z"/>
   <path class="fil4" d="M489 1343c10,0 18,9 18,19 0,11 -8,19 -18,19 -10,0 -18,-9 -18,-19 0,-11 8,-19 18,-19z"/>
   <path class="fil3" d="M1009 361l0 1076c0,134 -61,243 -127,355l-296 0c-32,-160 -57,-431 -35,-589 13,-90 51,-234 44,-315 -3,-38 -6,-73 -18,-109 7,-152 -24,-338 -70,-473 39,-26 313,-34 361,-47 21,58 75,99 140,102z"/>
   <path class="fil2" d="M1008 407l0 -46c-74,-3 -135,-59 -147,-131l0 -1c-1,-2 -9,-4 -13,1l-26 35 0 0c25,80 98,139 186,142z"/>
   <polygon class="fil2" points="670,1359 921,1359 921,1423 670,1423 "/>
   <g>
    <path class="fil5" d="M953 619c16,0 29,14 29,30 0,17 -13,30 -29,30 -16,0 -29,-14 -29,-30 0,-17 13,-30 29,-30z"/>
    <path class="fil6" d="M953 631c10,0 17,8 17,18 0,10 -8,18 -17,18 -10,0 -17,-8 -17,-18 0,-10 8,-18 17,-18z"/>
    <g>
     <path class="fil7" d="M952 641c1,0 3,1 3,3 0,1 -1,3 -3,3 -1,0 -3,-1 -3,-3 0,-1 1,-3 3,-3z"/>
     <path class="fil7" d="M952 653c1,0 3,1 3,3 0,1 -1,3 -3,3 -1,0 -3,-1 -3,-3 0,-1 1,-3 3,-3z"/>
    </g>
   </g>
   <g>
    <path class="fil5" d="M953 800c16,0 29,14 29,30 0,17 -13,30 -29,30 -16,0 -29,-14 -29,-30 0,-17 13,-30 29,-30z"/>
    <path class="fil6" d="M953 812c10,0 17,8 17,18 0,10 -8,18 -17,18 -10,0 -17,-8 -17,-18 0,-10 8,-18 17,-18z"/>
    <g>
     <path class="fil7" d="M952 822c1,0 3,1 3,3 0,1 -1,3 -3,3 -1,0 -3,-1 -3,-3 0,-1 1,-3 3,-3z"/>
     <path class="fil7" d="M952 834c1,0 3,1 3,3 0,1 -1,3 -3,3 -1,0 -3,-1 -3,-3 0,-1 1,-3 3,-3z"/>
    </g>
   </g>
   <g>
    <path class="fil5" d="M953 981c16,0 29,14 29,30 0,17 -13,30 -29,30 -16,0 -29,-14 -29,-30 0,-17 13,-30 29,-30z"/>
    <path class="fil6" d="M953 993c10,0 17,8 17,18 0,10 -8,18 -17,18 -10,0 -17,-8 -17,-18 0,-10 8,-18 17,-18z"/>
    <g>
     <path class="fil7" d="M952 1003c1,0 3,1 3,3 0,1 -1,3 -3,3 -1,0 -3,-1 -3,-3 0,-1 1,-3 3,-3z"/>
     <path class="fil7" d="M952 1014c1,0 3,1 3,3 0,1 -1,3 -3,3 -1,0 -3,-1 -3,-3 0,-1 1,-3 3,-3z"/>
    </g>
   </g>
   <g>
    <path class="fil5" d="M953 1162c16,0 29,14 29,30 0,17 -13,30 -29,30 -16,0 -29,-14 -29,-30 0,-17 13,-30 29,-30z"/>
    <path class="fil6" d="M953 1174c10,0 17,8 17,18 0,10 -8,18 -17,18 -10,0 -17,-8 -17,-18 0,-10 8,-18 17,-18z"/>
    <g>
     <path class="fil7" d="M952 1184c1,0 3,1 3,3 0,1 -1,3 -3,3 -1,0 -3,-1 -3,-3 0,-1 1,-3 3,-3z"/>
     <path class="fil7" d="M952 1195c1,0 3,1 3,3 0,1 -1,3 -3,3 -1,0 -3,-1 -3,-3 0,-1 1,-3 3,-3z"/>
    </g>
   </g>
  </g>
  <g id="_576403640">
   <path class="fil2" d="M1491 779c0,1 1,-2 1,-3 5,14 9,28 14,42 70,228 45,348 39,590l253 64c5,-84 7,-149 12,-226 3,-96 4,-205 -1,-314 -7,-135 -32,-256 -71,-359 -27,-72 -104,-226 -176,-266 0,0 -1,0 -1,-1 -60,119 -89,322 -70,473z"/>
   <path class="fil3" d="M1551 1246c-2,49 -5,101 -6,162l253 64c4,-58 5,-107 8,-158l-255 -68z"/>
   <path class="fil4" d="M1580 1343c-10,0 -18,9 -18,19 0,11 8,19 18,19 10,0 18,-9 18,-19 0,-11 -8,-19 -18,-19z"/>
   <path class="fil3" d="M1060 361l0 1076c0,134 61,243 127,355l296 0c32,-160 57,-431 35,-589 -13,-90 -51,-234 -44,-315 3,-38 6,-73 18,-109 -7,-152 24,-338 70,-473 -39,-26 -313,-34 -361,-47 -21,58 -75,99 -140,102z"/>
   <path class="fil2" d="M1060 407l0 -46c74,-3 135,-59 147,-131l0 -1c1,-2 9,-4 13,1l26 35 0 0c-25,80 -98,139 -186,142z"/>
   <polygon class="fil2" points="1399,1359 1148,1359 1148,1423 1399,1423 "/>
   <g>
    <path class="fil5" d="M1116 619c-16,0 -29,14 -29,30 0,17 13,30 29,30 16,0 29,-14 29,-30 0,-17 -13,-30 -29,-30z"/>
    <path class="fil6" d="M1116 631c-10,0 -17,8 -17,18 0,10 8,18 17,18 10,0 17,-8 17,-18 0,-10 -8,-18 -17,-18z"/>
    <g>
     <path class="fil7" d="M1116 641c-1,0 -3,1 -3,3 0,1 1,3 3,3 1,0 3,-1 3,-3 0,-1 -1,-3 -3,-3z"/>
     <path class="fil7" d="M1116 653c-1,0 -3,1 -3,3 0,1 1,3 3,3 1,0 3,-1 3,-3 0,-1 -1,-3 -3,-3z"/>
    </g>
   </g>
   <g>
    <path class="fil5" d="M1116 800c-16,0 -29,14 -29,30 0,17 13,30 29,30 16,0 29,-14 29,-30 0,-17 -13,-30 -29,-30z"/>
    <path class="fil6" d="M1116 812c-10,0 -17,8 -17,18 0,10 8,18 17,18 10,0 17,-8 17,-18 0,-10 -8,-18 -17,-18z"/>
    <g>
     <path class="fil7" d="M1116 822c-1,0 -3,1 -3,3 0,1 1,3 3,3 1,0 3,-1 3,-3 0,-1 -1,-3 -3,-3z"/>
     <path class="fil7" d="M1116 834c-1,0 -3,1 -3,3 0,1 1,3 3,3 1,0 3,-1 3,-3 0,-1 -1,-3 -3,-3z"/>
    </g>
   </g>
   <g>
    <path class="fil5" d="M1116 981c-16,0 -29,14 -29,30 0,17 13,30 29,30 16,0 29,-14 29,-30 0,-17 -13,-30 -29,-30z"/>
    <path class="fil6" d="M1116 993c-10,0 -17,8 -17,18 0,10 8,18 17,18 10,0 17,-8 17,-18 0,-10 -8,-18 -17,-18z"/>
    <g>
     <path class="fil7" d="M1116 1003c-1,0 -3,1 -3,3 0,1 1,3 3,3 1,0 3,-1 3,-3 0,-1 -1,-3 -3,-3z"/>
     <path class="fil7" d="M1116 1014c-1,0 -3,1 -3,3 0,1 1,3 3,3 1,0 3,-1 3,-3 0,-1 -1,-3 -3,-3z"/>
    </g>
   </g>
   <g>
    <path class="fil5" d="M1116 1162c-16,0 -29,14 -29,30 0,17 13,30 29,30 16,0 29,-14 29,-30 0,-17 -13,-30 -29,-30z"/>
    <path class="fil6" d="M1116 1174c-10,0 -17,8 -17,18 0,10 8,18 17,18 10,0 17,-8 17,-18 0,-10 -8,-18 -17,-18z"/>
    <g>
     <path class="fil7" d="M1116 1184c-1,0 -3,1 -3,3 0,1 1,3 3,3 1,0 3,-1 3,-3 0,-1 -1,-3 -3,-3z"/>
     <path class="fil7" d="M1116 1195c-1,0 -3,1 -3,3 0,1 1,3 3,3 1,0 3,-1 3,-3 0,-1 -1,-3 -3,-3z"/>
    </g>
   </g>
  </g>
  <rect class="fil8" width="2048" height="2048"/>
 </g>
</svg>
